<svg width="168" height="25" viewBox="0 0 168 25" fill="none" xmlns="http://www.w3.org/2000/svg">
<path d="M20.632 20.736C21.464 20.736 21.88 21.0987 21.88 21.824V22.912C21.88 23.6373 21.464 24 20.632 24H15.288C14.456 24 14.04 23.6373 14.04 22.912V21.824C14.04 21.0987 14.456 20.736 15.288 20.736H15.992L14.584 16.928H6.968L5.592 20.736H6.264C7.096 20.736 7.512 21.0987 7.512 21.824V22.912C7.512 23.6373 7.096 24 6.264 24H1.464C0.632003 24 0.216003 23.6373 0.216003 22.912V21.824C0.216003 21.0987 0.632003 20.736 1.464 20.736H2.136L8.888 2.49601C8.99467 2.21867 9.16534 2.00534 9.4 1.85601C9.63467 1.68534 9.90134 1.60001 10.2 1.60001H11.8C12.0987 1.60001 12.3547 1.68534 12.568 1.85601C12.8027 2.00534 12.9733 2.21867 13.08 2.49601L19.96 20.736H20.632ZM13.368 13.664L10.744 6.49601L8.152 13.664H13.368Z" fill="black"/>
<path d="M38.8698 20.736C39.7018 20.736 40.1178 21.0987 40.1178 21.824V22.912C40.1178 23.6373 39.7018 24 38.8698 24H35.7338C35.3498 24 35.0298 23.872 34.7738 23.616C34.5178 23.3387 34.3898 23.0187 34.3898 22.656V20.864C33.9844 21.8667 33.3124 22.6987 32.3738 23.36C31.4564 24 30.4858 24.32 29.4618 24.32C27.9684 24.32 26.7631 23.8827 25.8458 23.008C24.9498 22.1333 24.5018 20.992 24.5018 19.584C24.5018 18.0267 25.0138 16.8533 26.0378 16.064C27.0831 15.2533 28.6191 14.848 30.6458 14.848C31.8831 14.848 33.1311 14.9867 34.3898 15.264V13.952C34.3898 11.7973 33.3231 10.72 31.1898 10.72C30.5071 10.72 29.9631 10.8373 29.5578 11.072C29.5791 11.136 29.5898 11.232 29.5898 11.36C29.5898 11.9787 29.3871 12.4907 28.9818 12.896C28.5764 13.3013 28.0751 13.504 27.4778 13.504C26.8164 13.504 26.2831 13.3013 25.8778 12.896C25.4724 12.4907 25.2698 11.9573 25.2698 11.296C25.2698 10.208 25.8138 9.33334 26.9018 8.67201C28.0111 8.01067 29.4511 7.68001 31.2218 7.68001C33.5044 7.68001 35.2324 8.26667 36.4058 9.44001C37.6004 10.6133 38.1978 12.2667 38.1978 14.4V20.736H38.8698ZM30.5498 21.44C31.5524 21.44 32.4271 21.0347 33.1738 20.224C33.9204 19.4133 34.3258 18.4427 34.3898 17.312C33.5578 17.184 32.4911 17.12 31.1898 17.12C30.1871 17.12 29.4511 17.3013 28.9818 17.664C28.5124 18.0053 28.2778 18.5707 28.2778 19.36C28.2778 20 28.4804 20.512 28.8858 20.896C29.3124 21.2587 29.8671 21.44 30.5498 21.44Z" fill="black"/>
<path d="M58.216 20.736C59.048 20.736 59.464 21.0987 59.464 21.824V22.912C59.464 23.6373 59.048 24 58.216 24H55.368C55.0053 24 54.6853 23.8293 54.408 23.488L47.752 15.904V20.736H48.424C49.256 20.736 49.672 21.0987 49.672 21.824V22.912C49.672 23.6373 49.256 24 48.424 24H43.272C42.44 24 42.024 23.6373 42.024 22.912V21.824C42.024 21.0987 42.44 20.736 43.272 20.736H43.976V3.58401H43.272C42.44 3.58401 42.024 3.22134 42.024 2.49601V1.40801C42.024 0.682674 42.44 0.320007 43.272 0.320007H46.376C46.76 0.320007 47.08 0.458673 47.336 0.736006C47.6133 0.992006 47.752 1.30134 47.752 1.66401V15.2L51.368 12.384C52.328 11.6373 53.1707 11.264 53.896 11.264H52.232C51.4 11.264 50.984 10.9013 50.984 10.176V9.08801C50.984 8.36267 51.4 8.00001 52.232 8.00001H58.024C58.856 8.00001 59.272 8.36267 59.272 9.08801V10.176C59.272 10.9013 58.856 11.264 58.024 11.264H57L51.88 15.2L56.776 20.736H58.216Z" fill="black"/>
<path d="M76.1198 20.736C76.9518 20.736 77.3678 21.0987 77.3678 21.824V22.912C77.3678 23.6373 76.9518 24 76.1198 24H72.9837C72.5997 24 72.2798 23.872 72.0238 23.616C71.7678 23.3387 71.6397 23.0187 71.6397 22.656V20.864C71.2344 21.8667 70.5624 22.6987 69.6237 23.36C68.7064 24 67.7358 24.32 66.7118 24.32C65.2184 24.32 64.0131 23.8827 63.0958 23.008C62.1998 22.1333 61.7518 20.992 61.7518 19.584C61.7518 18.0267 62.2638 16.8533 63.2878 16.064C64.3331 15.2533 65.8691 14.848 67.8958 14.848C69.1331 14.848 70.3811 14.9867 71.6397 15.264V13.952C71.6397 11.7973 70.5731 10.72 68.4398 10.72C67.7571 10.72 67.2131 10.8373 66.8077 11.072C66.8291 11.136 66.8398 11.232 66.8398 11.36C66.8398 11.9787 66.6371 12.4907 66.2318 12.896C65.8264 13.3013 65.3251 13.504 64.7278 13.504C64.0664 13.504 63.5331 13.3013 63.1278 12.896C62.7224 12.4907 62.5198 11.9573 62.5198 11.296C62.5198 10.208 63.0638 9.33334 64.1518 8.67201C65.2611 8.01067 66.7011 7.68001 68.4717 7.68001C70.7544 7.68001 72.4824 8.26667 73.6557 9.44001C74.8504 10.6133 75.4478 12.2667 75.4478 14.4V20.736H76.1198ZM67.7998 21.44C68.8024 21.44 69.6771 21.0347 70.4238 20.224C71.1704 19.4133 71.5757 18.4427 71.6397 17.312C70.8077 17.184 69.7411 17.12 68.4398 17.12C67.4371 17.12 66.7011 17.3013 66.2318 17.664C65.7624 18.0053 65.5277 18.5707 65.5277 19.36C65.5277 20 65.7304 20.512 66.1357 20.896C66.5624 21.2587 67.1171 21.44 67.7998 21.44Z" fill="black"/>
<path d="M90.154 7.68001C91.0927 7.68001 91.818 7.92534 92.33 8.41601C92.842 8.90667 93.098 9.55734 93.098 10.368C93.098 11.072 92.8633 11.6693 92.394 12.16C91.946 12.6293 91.37 12.864 90.666 12.864C90.0687 12.864 89.5673 12.6933 89.162 12.352C88.778 11.9893 88.5327 11.52 88.426 10.944C87.594 11.136 86.89 11.712 86.314 12.672C85.738 13.632 85.45 14.7093 85.45 15.904V20.736H86.762C87.594 20.736 88.01 21.0987 88.01 21.824V22.912C88.01 23.6373 87.594 24 86.762 24H80.938C80.106 24 79.69 23.6373 79.69 22.912V21.824C79.69 21.0987 80.106 20.736 80.938 20.736H81.642V11.264H80.938C80.106 11.264 79.69 10.9013 79.69 10.176V9.08801C79.69 8.36267 80.106 8.00001 80.938 8.00001H84.074C84.458 8.00001 84.778 8.13867 85.034 8.41601C85.3113 8.67201 85.45 8.98134 85.45 9.34401V11.776C85.834 10.5173 86.4527 9.52534 87.306 8.80001C88.1593 8.05334 89.1087 7.68001 90.154 7.68001Z" fill="black"/>
<path d="M102.996 14.336C105.022 14.912 106.452 15.584 107.284 16.352C108.116 17.0987 108.532 18.112 108.532 19.392C108.532 20.3307 108.254 21.1733 107.7 21.92C107.145 22.6667 106.366 23.2533 105.364 23.68C104.382 24.1067 103.241 24.32 101.94 24.32C99.9131 24.32 98.3024 23.968 97.1077 23.264C95.9131 22.56 95.3158 21.632 95.3158 20.48C95.3158 19.8187 95.5184 19.2853 95.9238 18.88C96.3291 18.4533 96.8624 18.24 97.5238 18.24C98.1211 18.24 98.6224 18.4533 99.0277 18.88C99.4544 19.2853 99.6677 19.7973 99.6677 20.416C99.6677 20.672 99.6144 20.928 99.5078 21.184C99.9984 21.5467 100.788 21.728 101.876 21.728C102.793 21.728 103.497 21.568 103.988 21.248C104.478 20.928 104.724 20.4907 104.724 19.936C104.724 19.3813 104.532 18.9547 104.148 18.656C103.785 18.3573 103.028 18.048 101.876 17.728C100.276 17.28 99.0278 16.8213 98.1318 16.352C97.2358 15.8827 96.5957 15.3493 96.2117 14.752C95.8277 14.1333 95.6357 13.376 95.6357 12.48C95.6357 11.5413 95.9131 10.7093 96.4678 9.98401C97.0224 9.25867 97.7904 8.69334 98.7718 8.28801C99.7744 7.88267 100.916 7.68001 102.196 7.68001C104.073 7.68001 105.556 8.01067 106.644 8.67201C107.753 9.31201 108.308 10.1973 108.308 11.328C108.308 11.9893 108.105 12.5227 107.7 12.928C107.316 13.3333 106.782 13.536 106.1 13.536C105.502 13.536 104.99 13.3333 104.564 12.928C104.158 12.5013 103.956 11.9893 103.956 11.392C103.956 11.1147 103.998 10.8907 104.084 10.72C103.7 10.4213 103.038 10.272 102.1 10.272C101.289 10.272 100.638 10.4427 100.148 10.784C99.6784 11.1253 99.4437 11.5733 99.4437 12.128C99.4437 12.5973 99.6784 12.9813 100.148 13.28C100.638 13.5787 101.588 13.9307 102.996 14.336Z" fill="black"/>
<path d="M128.046 20.736C128.878 20.736 129.294 21.0987 129.294 21.824V22.912C129.294 23.6373 128.878 24 128.046 24H122.862C122.03 24 121.614 23.6373 121.614 22.912V21.824C121.614 21.0987 122.03 20.736 122.862 20.736H123.566V15.424C123.566 13.76 123.363 12.5867 122.958 11.904C122.552 11.2213 121.87 10.88 120.91 10.88C120.227 10.88 119.566 11.104 118.926 11.552C118.307 12 117.806 12.5867 117.422 13.312C117.059 14.0373 116.878 14.7947 116.878 15.584V20.736H117.55C118.382 20.736 118.798 21.0987 118.798 21.824V22.912C118.798 23.6373 118.382 24 117.55 24H112.366C111.534 24 111.118 23.6373 111.118 22.912V21.824C111.118 21.0987 111.534 20.736 112.366 20.736H113.07V3.58401H112.366C111.534 3.58401 111.118 3.22134 111.118 2.49601V1.40801C111.118 0.682674 111.534 0.320007 112.366 0.320007H115.502C115.886 0.320007 116.206 0.458673 116.462 0.736006C116.739 0.992006 116.878 1.30134 116.878 1.66401V11.328C117.326 10.2613 118.019 9.38667 118.958 8.70401C119.896 8.02134 120.888 7.68001 121.934 7.68001C123.704 7.68001 125.048 8.26667 125.966 9.44001C126.904 10.592 127.374 12.2667 127.374 14.464V20.736H128.046Z" fill="black"/>
<path d="M148.491 20.736C149.323 20.736 149.739 21.0987 149.739 21.824V22.912C149.739 23.6373 149.323 24 148.491 24H143.467C142.635 24 142.219 23.6373 142.219 22.912V21.824C142.219 21.0987 142.635 20.736 143.467 20.736H143.979V15.424C143.979 13.7387 143.787 12.5653 143.403 11.904C143.019 11.2213 142.347 10.88 141.387 10.88C140.704 10.88 140.053 11.104 139.435 11.552C138.837 11.9787 138.347 12.5547 137.963 13.28C137.6 14.0053 137.419 14.7733 137.419 15.584V20.736H137.931C138.763 20.736 139.179 21.0987 139.179 21.824V22.912C139.179 23.6373 138.763 24 137.931 24H132.907C132.075 24 131.659 23.6373 131.659 22.912V21.824C131.659 21.0987 132.075 20.736 132.907 20.736H133.611V11.264H132.907C132.075 11.264 131.659 10.9013 131.659 10.176V9.08801C131.659 8.36267 132.075 8.00001 132.907 8.00001H136.043C136.427 8.00001 136.747 8.13867 137.003 8.41601C137.28 8.67201 137.419 8.98134 137.419 9.34401V11.328C137.867 10.2613 138.549 9.38667 139.467 8.70401C140.405 8.02134 141.387 7.68001 142.411 7.68001C144.181 7.68001 145.515 8.25601 146.411 9.40801C147.328 10.56 147.787 12.2453 147.787 14.464V20.736H148.491Z" fill="black"/>
<path d="M166.401 20.736C167.233 20.736 167.649 21.0987 167.649 21.824V22.912C167.649 23.6373 167.233 24 166.401 24H163.265C162.881 24 162.561 23.872 162.305 23.616C162.049 23.3387 161.921 23.0187 161.921 22.656V20.864C161.516 21.8667 160.844 22.6987 159.905 23.36C158.988 24 158.017 24.32 156.993 24.32C155.5 24.32 154.294 23.8827 153.377 23.008C152.481 22.1333 152.033 20.992 152.033 19.584C152.033 18.0267 152.545 16.8533 153.569 16.064C154.614 15.2533 156.15 14.848 158.177 14.848C159.414 14.848 160.662 14.9867 161.921 15.264V13.952C161.921 11.7973 160.854 10.72 158.721 10.72C158.038 10.72 157.494 10.8373 157.089 11.072C157.11 11.136 157.121 11.232 157.121 11.36C157.121 11.9787 156.918 12.4907 156.513 12.896C156.108 13.3013 155.606 13.504 155.009 13.504C154.348 13.504 153.814 13.3013 153.409 12.896C153.004 12.4907 152.801 11.9573 152.801 11.296C152.801 10.208 153.345 9.33334 154.433 8.67201C155.542 8.01067 156.982 7.68001 158.753 7.68001C161.036 7.68001 162.764 8.26667 163.937 9.44001C165.132 10.6133 165.729 12.2667 165.729 14.4V20.736H166.401ZM158.081 21.44C159.084 21.44 159.958 21.0347 160.705 20.224C161.452 19.4133 161.857 18.4427 161.921 17.312C161.089 17.184 160.022 17.12 158.721 17.12C157.718 17.12 156.982 17.3013 156.513 17.664C156.044 18.0053 155.809 18.5707 155.809 19.36C155.809 20 156.012 20.512 156.417 20.896C156.844 21.2587 157.398 21.44 158.081 21.44Z" fill="black"/>
</svg>
